<svg xmlns="http://www.w3.org/2000/svg">
  <symbol id="frend" viewBox="0 0 24 24">
    <g>
      <path d="M20.9061 18.0937H19.0311V16.2187C19.0311 16.1156 18.9467 16.0312 18.8436 16.0312H17.7186C17.6155 16.0312 17.5311 16.1156 17.5311 16.2187V18.0937H15.6561C15.553 18.0937 15.4686 18.1781 15.4686 18.2812V19.4062C15.4686 19.5093 15.553 19.5937 15.6561 19.5937H17.5311V21.4687C17.5311 21.5718 17.6155 21.6562 17.7186 21.6562H18.8436C18.9467 21.6562 19.0311 21.5718 19.0311 21.4687V19.5937H20.9061C21.0092 19.5937 21.0936 19.5093 21.0936 19.4062V18.2812C21.0936 18.1781 21.0092 18.0937 20.9061 18.0937ZM8.75376 11.6812C8.73266 11.4773 8.72094 11.2711 8.72094 11.0625C8.72094 10.6898 8.7561 10.3265 8.82173 9.97263C8.83813 9.88825 8.7936 9.80153 8.71626 9.76638C8.39751 9.62341 8.10454 9.42653 7.85141 9.1781C7.55315 8.88889 7.31844 8.54069 7.16227 8.15571C7.0061 7.77073 6.93189 7.35742 6.94438 6.94216C6.96548 6.18981 7.26782 5.47497 7.79516 4.93591C8.37407 4.34294 9.15219 4.0195 9.97954 4.02888C10.7272 4.03591 11.4491 4.32419 11.9952 4.83513C12.1803 5.00856 12.3397 5.20075 12.4733 5.407C12.5202 5.47966 12.6116 5.51013 12.6913 5.482C13.1038 5.33903 13.5397 5.23825 13.9874 5.19138C14.1186 5.17731 14.1936 5.03669 14.135 4.9195C13.3733 3.41247 11.817 2.37185 10.017 2.34372C7.42016 2.30388 5.25454 4.43435 5.25454 7.03122C5.25454 8.5031 5.93188 9.8156 6.9936 10.6758C6.24829 11.0203 5.56157 11.4961 4.96626 12.0914C3.68188 13.3734 2.95532 15.0656 2.90844 16.8726C2.90782 16.8976 2.91221 16.9225 2.92135 16.9458C2.93049 16.9691 2.9442 16.9903 2.96168 17.0082C2.97915 17.0262 3.00003 17.0404 3.02309 17.0501C3.04615 17.0598 3.07092 17.0648 3.09595 17.0648H4.41079C4.51157 17.0648 4.59594 16.9851 4.59829 16.8843C4.64282 15.525 5.1936 14.2523 6.16157 13.2867C6.85063 12.5976 7.69438 12.1195 8.61548 11.8875C8.70454 11.8617 8.76548 11.775 8.75376 11.6812ZM19.3124 11.0625C19.3124 8.49841 17.2522 6.41481 14.6975 6.37497C12.1006 6.33513 9.93735 8.4656 9.93735 11.0625C9.93735 12.5343 10.617 13.8468 11.6764 14.707C10.9234 15.0561 10.2379 15.5353 9.65141 16.1226C8.36704 17.4047 7.64048 19.0968 7.5936 20.9015C7.59298 20.9265 7.59736 20.9514 7.60651 20.9747C7.61565 20.998 7.62936 21.0192 7.64683 21.0372C7.66431 21.0551 7.68519 21.0693 7.70825 21.079C7.73131 21.0887 7.75608 21.0937 7.7811 21.0937H9.0936C9.19438 21.0937 9.27876 21.014 9.2811 20.9132C9.32563 19.5539 9.87641 18.2812 10.8444 17.3156C11.8545 16.3054 13.1952 15.75 14.6249 15.75C17.2124 15.75 19.3124 13.6523 19.3124 11.0625ZM16.7459 13.1836C16.1788 13.7508 15.4264 14.0625 14.6249 14.0625C13.8233 14.0625 13.0709 13.7508 12.5038 13.1836C12.2207 12.902 11.9971 12.5665 11.8461 12.1969C11.6951 11.8273 11.6199 11.4312 11.6249 11.032C11.6319 10.2633 11.9389 9.52028 12.4756 8.9695C13.0381 8.39294 13.7905 8.07185 14.5944 8.06247C15.3889 8.05544 16.16 8.36481 16.7272 8.92028C17.3084 9.48981 17.6272 10.2515 17.6272 11.0625C17.6249 11.864 17.3131 12.6164 16.7459 13.1836Z"/>
    </g>
  </symbol>
  <symbol id="chat" viewBox="0 0 24 24">
    <g>
      <path d="M10.8752 12C10.8752 12.2984 10.9937 12.5845 11.2047 12.7955C11.4157 13.0065 11.7018 13.125 12.0002 13.125C12.2986 13.125 12.5847 13.0065 12.7957 12.7955C13.0067 12.5845 13.1252 12.2984 13.1252 12C13.1252 11.7016 13.0067 11.4155 12.7957 11.2045C12.5847 10.9935 12.2986 10.875 12.0002 10.875C11.7018 10.875 11.4157 10.9935 11.2047 11.2045C10.9937 11.4155 10.8752 11.7016 10.8752 12ZM15.5627 12C15.5627 12.2984 15.6812 12.5845 15.8922 12.7955C16.1032 13.0065 16.3893 13.125 16.6877 13.125C16.9861 13.125 17.2722 13.0065 17.4832 12.7955C17.6942 12.5845 17.8127 12.2984 17.8127 12C17.8127 11.7016 17.6942 11.4155 17.4832 11.2045C17.2722 10.9935 16.9861 10.875 16.6877 10.875C16.3893 10.875 16.1032 10.9935 15.8922 11.2045C15.6812 11.4155 15.5627 11.7016 15.5627 12ZM6.18769 12C6.18769 12.2984 6.30622 12.5845 6.5172 12.7955C6.72818 13.0065 7.01433 13.125 7.31269 13.125C7.61106 13.125 7.89721 13.0065 8.10819 12.7955C8.31917 12.5845 8.43769 12.2984 8.43769 12C8.43769 11.7016 8.31917 11.4155 8.10819 11.2045C7.89721 10.9935 7.61106 10.875 7.31269 10.875C7.01433 10.875 6.72818 10.9935 6.5172 11.2045C6.30622 11.4155 6.18769 11.7016 6.18769 12ZM21.6846 7.93125C21.1549 6.67266 20.3955 5.54297 19.4275 4.57266C18.4663 3.60796 17.3253 2.84114 16.0689 2.31563C14.7799 1.77422 13.4111 1.5 12.0002 1.5H11.9533C10.533 1.50703 9.15723 1.78828 7.86348 2.34141C6.61791 2.87232 5.48753 3.64049 4.53535 4.60312C3.57676 5.57109 2.82441 6.69609 2.3041 7.95C1.76504 9.24844 1.49316 10.6289 1.50019 12.0492C1.50815 13.6769 1.89322 15.2806 2.62519 16.7344V20.2969C2.62519 20.5828 2.73878 20.857 2.94097 21.0592C3.14316 21.2614 3.41738 21.375 3.70332 21.375H7.26816C8.72198 22.107 10.3257 22.492 11.9533 22.5H12.0025C13.4064 22.5 14.7682 22.2281 16.0502 21.6961C17.3002 21.1768 18.437 20.419 19.3971 19.4648C20.365 18.5063 21.1268 17.3859 21.6588 16.1367C22.2119 14.843 22.4932 13.4672 22.5002 12.0469C22.5072 10.6195 22.2307 9.23438 21.6846 7.93125ZM18.1432 18.1969C16.5002 19.8234 14.3205 20.7188 12.0002 20.7188H11.9604C10.5471 20.7117 9.14316 20.3602 7.90332 19.6992L7.70644 19.5938H4.40644V16.2938L4.30098 16.0969C3.64004 14.857 3.28848 13.4531 3.28144 12.0398C3.27207 9.70312 4.16504 7.50937 5.80332 5.85703C7.43926 4.20469 9.62598 3.29062 11.9627 3.28125H12.0025C13.1744 3.28125 14.3111 3.50859 15.3822 3.95859C16.4275 4.39687 17.365 5.02734 18.1713 5.83359C18.9752 6.6375 19.608 7.57734 20.0463 8.62266C20.501 9.70547 20.7283 10.8539 20.7236 12.0398C20.7096 14.3742 19.7932 16.5609 18.1432 18.1969Z"/>
    </g>
  </symbol>
  <symbol id="bell" viewBox="0 0 24 24">
    <g>
      <path d="M19.125 18H18.5625V10.0312C18.5625 6.72422 16.118 3.99141 12.9375 3.53672V2.625C12.9375 2.10703 12.518 1.6875 12 1.6875C11.482 1.6875 11.0625 2.10703 11.0625 2.625V3.53672C7.88203 3.99141 5.4375 6.72422 5.4375 10.0312V18H4.875C4.46016 18 4.125 18.3352 4.125 18.75V19.5C4.125 19.6031 4.20937 19.6875 4.3125 19.6875H9.375C9.375 21.1359 10.5516 22.3125 12 22.3125C13.4484 22.3125 14.625 21.1359 14.625 19.6875H19.6875C19.7906 19.6875 19.875 19.6031 19.875 19.5V18.75C19.875 18.3352 19.5398 18 19.125 18ZM12 20.8125C11.3789 20.8125 10.875 20.3086 10.875 19.6875H13.125C13.125 20.3086 12.6211 20.8125 12 20.8125ZM7.125 18V10.0312C7.125 8.72813 7.63125 7.50469 8.55234 6.58359C9.47344 5.6625 10.6969 5.15625 12 5.15625C13.3031 5.15625 14.5266 5.6625 15.4477 6.58359C16.3687 7.50469 16.875 8.72813 16.875 10.0312V18H7.125Z"/>
    </g>
  </symbol>
  <symbol id="info" viewBox="0 0 24 24">
    <g>
      <path d="M12 1.5C6.20156 1.5 1.5 6.20156 1.5 12C1.5 17.7984 6.20156 22.5 12 22.5C17.7984 22.5 22.5 17.7984 22.5 12C22.5 6.20156 17.7984 1.5 12 1.5ZM12 20.7188C7.18594 20.7188 3.28125 16.8141 3.28125 12C3.28125 7.18594 7.18594 3.28125 12 3.28125C16.8141 3.28125 20.7188 7.18594 20.7188 12C20.7188 16.8141 16.8141 20.7188 12 20.7188Z"/>
      <path d="M10.875 7.875C10.875 8.17337 10.9935 8.45952 11.2045 8.6705C11.4155 8.88147 11.7016 9 12 9C12.2984 9 12.5845 8.88147 12.7955 8.6705C13.0065 8.45952 13.125 8.17337 13.125 7.875C13.125 7.57663 13.0065 7.29048 12.7955 7.0795C12.5845 6.86853 12.2984 6.75 12 6.75C11.7016 6.75 11.4155 6.86853 11.2045 7.0795C10.9935 7.29048 10.875 7.57663 10.875 7.875ZM12.5625 10.5H11.4375C11.3344 10.5 11.25 10.5844 11.25 10.6875V17.0625C11.25 17.1656 11.3344 17.25 11.4375 17.25H12.5625C12.6656 17.25 12.75 17.1656 12.75 17.0625V10.6875C12.75 10.5844 12.6656 10.5 12.5625 10.5Z"/>
    </g>
  </symbol>
  <symbol id="down" viewBox="0 0 16 16">
    <g>
      <path d="M13.1308 4.6875H2.8683C2.56049 4.6875 2.38862 5.0125 2.57924 5.23437L7.71049 11.1844C7.85736 11.3547 8.14018 11.3547 8.28861 11.1844L13.4199 5.23437C13.6105 5.0125 13.4386 4.6875 13.1308 4.6875Z"/>
    </g>
  </symbol>
  <symbol id="message" viewBox="0 0 30 24">
    <g>
      <path d="M22.041 5.83371C21.0763 5.03264 19.9314 4.39565 18.6709 3.95871C17.378 3.50917 15.9894 3.27885 14.5871 3.28136H14.5389C11.7154 3.29074 9.07312 4.2048 7.09637 5.85714C5.11678 7.50949 4.03777 9.70324 4.0491 12.04C4.0576 13.4532 4.4824 14.8571 5.28103 16.097L5.40847 16.2939V19.5939H9.39597L9.63387 19.6993C11.132 20.3603 12.8284 20.7118 14.5361 20.7189H14.5843C17.388 20.7189 20.0218 19.8235 22.007 18.197C24.0008 16.561 25.1081 14.3743 25.1251 12.04C25.1307 10.854 24.856 9.70558 24.3066 8.62277C23.7783 7.57975 23.0087 6.63229 22.041 5.83371ZM8.92019 13.1251C8.56447 13.1191 8.22576 12.9979 7.97676 12.7876C7.72775 12.5773 7.58828 12.2946 7.58828 12.0001C7.58828 11.7057 7.72775 11.4229 7.97676 11.2126C8.22576 11.0023 8.56447 10.8811 8.92019 10.8751C9.27592 10.8811 9.61462 11.0023 9.86363 11.2126C10.1126 11.4229 10.2521 11.7057 10.2521 12.0001C10.2521 12.2946 10.1126 12.5773 9.86363 12.7876C9.61462 12.9979 9.27592 13.1191 8.92019 13.1251ZM14.5843 13.1251C14.2285 13.1191 13.8898 12.9979 13.6408 12.7876C13.3918 12.5773 13.2523 12.2946 13.2523 12.0001C13.2523 11.7057 13.3918 11.4229 13.6408 11.2126C13.8898 11.0023 14.2285 10.8811 14.5843 10.8751C14.94 10.8811 15.2787 11.0023 15.5277 11.2126C15.7767 11.4229 15.9162 11.7057 15.9162 12.0001C15.9162 12.2946 15.7767 12.5773 15.5277 12.7876C15.2787 12.9979 14.94 13.1191 14.5843 13.1251ZM20.2483 13.1251C19.8926 13.1191 19.5539 12.9979 19.3049 12.7876C19.0559 12.5773 18.9164 12.2946 18.9164 12.0001C18.9164 11.7057 19.0559 11.4229 19.3049 11.2126C19.5539 11.0023 19.8926 10.8811 20.2483 10.8751C20.604 10.8811 20.9427 11.0023 21.1918 11.2126C21.4408 11.4229 21.5802 11.7057 21.5802 12.0001C21.5802 12.2946 21.4408 12.5773 21.1918 12.7876C20.9427 12.9979 20.604 13.1191 20.2483 13.1251Z" fill="#E6F7FF"/>
      <path d="M18.888 12C18.888 12.2984 19.0312 12.5845 19.2862 12.7955C19.5411 13.0065 19.8868 13.125 20.2474 13.125C20.6079 13.125 20.9537 13.0065 21.2086 12.7955C21.4635 12.5845 21.6068 12.2984 21.6068 12C21.6068 11.7016 21.4635 11.4155 21.2086 11.2045C20.9537 10.9935 20.6079 10.875 20.2474 10.875C19.8868 10.875 19.5411 10.9935 19.2862 11.2045C19.0312 11.4155 18.888 11.7016 18.888 12ZM7.55988 12C7.55988 12.2984 7.70309 12.5845 7.95803 12.7955C8.21296 13.0065 8.55872 13.125 8.91925 13.125C9.27978 13.125 9.62554 13.0065 9.88047 12.7955C10.1354 12.5845 10.2786 12.2984 10.2786 12C10.2786 11.7016 10.1354 11.4155 9.88047 11.2045C9.62554 10.9935 9.27978 10.875 8.91925 10.875C8.55872 10.875 8.21296 10.9935 7.95803 11.2045C7.70309 11.4155 7.55988 11.7016 7.55988 12Z" fill="#1890FF"/>
      <path d="M26.2855 7.93125C25.6454 6.67266 24.7279 5.54297 23.5582 4.57266C22.3968 3.60796 21.018 2.84114 19.4999 2.31563C17.9423 1.77422 16.2884 1.5 14.5835 1.5H14.5269C12.8107 1.50703 11.1483 1.78828 9.585 2.34141C8.07994 2.87232 6.71407 3.64049 5.56352 4.60312C4.40521 5.57109 3.49613 6.69609 2.86742 7.95C2.21605 9.24844 1.88754 10.6289 1.89603 12.0492C1.90564 13.6769 2.37094 15.2806 3.25541 16.7344V20.2969C3.25541 20.5828 3.39266 20.857 3.63697 21.0592C3.88128 21.2614 4.21264 21.375 4.55814 21.375H8.86566C10.6224 22.107 12.5601 22.492 14.5269 22.5H14.5864C16.2828 22.5 17.9282 22.2281 19.4773 21.6961C20.9877 21.1768 22.3613 20.419 23.5214 19.4648C24.6911 18.5063 25.6115 17.3859 26.2543 16.1367C26.9227 14.843 27.2625 13.4672 27.271 12.0469C27.2795 10.6195 26.9454 9.23438 26.2855 7.93125ZM22.0063 18.1969C20.021 19.8234 17.3872 20.7188 14.5835 20.7188H14.5354C12.8277 20.7117 11.1313 20.3602 9.63314 19.6992L9.39525 19.5938H5.40775V16.2938L5.28031 16.0969C4.48168 14.857 4.05687 13.4531 4.04838 12.0398C4.03705 9.70312 5.11605 7.50937 7.09564 5.85703C9.0724 4.20469 11.7147 3.29062 14.5382 3.28125H14.5864C16.0024 3.28125 17.3759 3.50859 18.6702 3.95859C19.9332 4.39687 21.0661 5.02734 22.0403 5.83359C23.0117 6.6375 23.7763 7.57734 24.3059 8.62266C24.8553 9.70547 25.13 10.8539 25.1244 12.0398C25.1074 14.3742 24 16.5609 22.0063 18.1969Z" fill="#1890FF"/>
      <path d="M13.2239 12C13.2239 12.2984 13.3672 12.5845 13.6221 12.7955C13.877 13.0065 14.2228 13.125 14.5833 13.125C14.9438 13.125 15.2896 13.0065 15.5445 12.7955C15.7995 12.5845 15.9427 12.2984 15.9427 12C15.9427 11.7016 15.7995 11.4155 15.5445 11.2045C15.2896 10.9935 14.9438 10.875 14.5833 10.875C14.2228 10.875 13.877 10.9935 13.6221 11.2045C13.3672 11.4155 13.2239 11.7016 13.2239 12Z" fill="#1890FF"/>
    </g>
  </symbol>
  <symbol id="feed" viewBox="0 0 30 24">
    <g>
      <path d="M25.5886 2.625H4.74481C4.24354 2.625 3.83856 2.96016 3.83856 3.375V20.625C3.83856 21.0398 4.24354 21.375 4.74481 21.375H25.5886C26.0898 21.375 26.4948 21.0398 26.4948 20.625V3.375C26.4948 2.96016 26.0898 2.625 25.5886 2.625ZM24.4557 19.6875H5.87762V4.3125H24.4557V19.6875Z" fill="#1890FF"/>
      <path d="M5.87762 19.6875H24.4557V4.3125H5.87762V19.6875ZM14.3737 8.0625C14.3737 7.95937 14.4757 7.875 14.6003 7.875H19.8112C19.9358 7.875 20.0378 7.95937 20.0378 8.0625V9.1875C20.0378 9.29063 19.9358 9.375 19.8112 9.375H14.6003C14.4757 9.375 14.3737 9.29063 14.3737 9.1875V8.0625ZM14.3737 11.4375C14.3737 11.3344 14.4757 11.25 14.6003 11.25H19.8112C19.9358 11.25 20.0378 11.3344 20.0378 11.4375V12.5625C20.0378 12.6656 19.9358 12.75 19.8112 12.75H14.6003C14.4757 12.75 14.3737 12.6656 14.3737 12.5625V11.4375ZM14.3737 14.8125C14.3737 14.7094 14.4757 14.625 14.6003 14.625H19.8112C19.9358 14.625 20.0378 14.7094 20.0378 14.8125V15.9375C20.0378 16.0406 19.9358 16.125 19.8112 16.125H14.6003C14.4757 16.125 14.3737 16.0406 14.3737 15.9375V14.8125ZM11.4284 7.6875C12.0543 7.6875 12.5612 8.10703 12.5612 8.625C12.5612 9.14297 12.0543 9.5625 11.4284 9.5625C10.8025 9.5625 10.2956 9.14297 10.2956 8.625C10.2956 8.10703 10.8025 7.6875 11.4284 7.6875ZM11.4284 11.0625C12.0543 11.0625 12.5612 11.482 12.5612 12C12.5612 12.518 12.0543 12.9375 11.4284 12.9375C10.8025 12.9375 10.2956 12.518 10.2956 12C10.2956 11.482 10.8025 11.0625 11.4284 11.0625ZM11.4284 14.4375C12.0543 14.4375 12.5612 14.857 12.5612 15.375C12.5612 15.893 12.0543 16.3125 11.4284 16.3125C10.8025 16.3125 10.2956 15.893 10.2956 15.375C10.2956 14.857 10.8025 14.4375 11.4284 14.4375Z" fill="#E6F7FF"/>
      <path d="M10.2956 15.375C10.2956 15.6236 10.4149 15.8621 10.6274 16.0379C10.8398 16.2137 11.128 16.3125 11.4284 16.3125C11.7288 16.3125 12.017 16.2137 12.2294 16.0379C12.4419 15.8621 12.5612 15.6236 12.5612 15.375C12.5612 15.1264 12.4419 14.8879 12.2294 14.7121C12.017 14.5363 11.7288 14.4375 11.4284 14.4375C11.128 14.4375 10.8398 14.5363 10.6274 14.7121C10.4149 14.8879 10.2956 15.1264 10.2956 15.375ZM10.2956 12C10.2956 12.2486 10.4149 12.4871 10.6274 12.6629C10.8398 12.8387 11.128 12.9375 11.4284 12.9375C11.7288 12.9375 12.017 12.8387 12.2294 12.6629C12.4419 12.4871 12.5612 12.2486 12.5612 12C12.5612 11.7514 12.4419 11.5129 12.2294 11.3371C12.017 11.1613 11.7288 11.0625 11.4284 11.0625C11.128 11.0625 10.8398 11.1613 10.6274 11.3371C10.4149 11.5129 10.2956 11.7514 10.2956 12ZM10.2956 8.625C10.2956 8.87364 10.4149 9.1121 10.6274 9.28791C10.8398 9.46373 11.128 9.5625 11.4284 9.5625C11.7288 9.5625 12.017 9.46373 12.2294 9.28791C12.4419 9.1121 12.5612 8.87364 12.5612 8.625C12.5612 8.37636 12.4419 8.1379 12.2294 7.96209C12.017 7.78627 11.7288 7.6875 11.4284 7.6875C11.128 7.6875 10.8398 7.78627 10.6274 7.96209C10.4149 8.1379 10.2956 8.37636 10.2956 8.625ZM14.6003 16.125H19.8112C19.9358 16.125 20.0378 16.0406 20.0378 15.9375V14.8125C20.0378 14.7094 19.9358 14.625 19.8112 14.625H14.6003C14.4757 14.625 14.3737 14.7094 14.3737 14.8125V15.9375C14.3737 16.0406 14.4757 16.125 14.6003 16.125ZM14.6003 12.75H19.8112C19.9358 12.75 20.0378 12.6656 20.0378 12.5625V11.4375C20.0378 11.3344 19.9358 11.25 19.8112 11.25H14.6003C14.4757 11.25 14.3737 11.3344 14.3737 11.4375V12.5625C14.3737 12.6656 14.4757 12.75 14.6003 12.75ZM14.6003 9.375H19.8112C19.9358 9.375 20.0378 9.29062 20.0378 9.1875V8.0625C20.0378 7.95937 19.9358 7.875 19.8112 7.875H14.6003C14.4757 7.875 14.3737 7.95937 14.3737 8.0625V9.1875C14.3737 9.29062 14.4757 9.375 14.6003 9.375Z" fill="#1890FF"/>
    </g>
  </symbol>
  <symbol id="market" viewBox="0 0 30 24">
    <g>
      <path d="M23.8582 8.0625H5.30841C5.29991 8.0625 5.29425 8.06719 5.29425 8.07422V10.2117C5.29425 11.6133 6.68195 12.75 8.38966 12.75C9.5423 12.75 10.5477 12.2344 11.0829 11.468C11.1651 11.3484 11.3208 11.2734 11.4879 11.2734C11.655 11.2734 11.8079 11.3484 11.8929 11.468C12.4253 12.2344 13.4307 12.75 14.5833 12.75C15.7388 12.75 16.747 12.232 17.2766 11.4633C17.3587 11.3461 17.5088 11.2734 17.6702 11.2734H17.6872C17.8515 11.2734 17.9987 11.3461 18.0809 11.4633C18.6133 12.232 19.6215 12.75 20.777 12.75C22.4847 12.75 23.8724 11.6133 23.8724 10.2117V8.07422C23.8724 8.06719 23.8667 8.0625 23.8582 8.0625Z" fill="#E6F7FF"/>
      <path d="M25.0623 6.37734V3.375C25.0623 2.96016 24.6573 2.625 24.156 2.625H5.01149C4.51022 2.625 4.10524 2.96016 4.10524 3.375V6.37734C3.63229 6.40078 3.25563 6.72656 3.25563 7.125V10.2117C3.25382 10.779 3.39262 11.3406 3.66345 11.8617C3.78522 12.1008 3.93532 12.3258 4.10524 12.5391V20.625C4.10524 21.0375 4.51022 21.375 5.01149 21.375H24.156C24.6573 21.375 25.0623 21.0398 25.0623 20.625V12.5391C25.2349 12.3252 25.3828 12.0985 25.5041 11.8617C25.7731 11.3391 25.9119 10.7836 25.9119 10.2117V7.125C25.9119 6.72656 25.5352 6.40078 25.0623 6.37734ZM6.1443 4.3125H23.0232V6.375H6.1443V4.3125ZM16.3963 19.6898H12.7713V17.25H16.3963V19.6898ZM23.0345 19.6898H18.2088V16.5C18.2088 16.0852 17.8038 15.75 17.3025 15.75H11.865C11.3637 15.75 10.9588 16.0852 10.9588 16.5V19.6898H6.1443V14.0133C6.22643 14.0461 6.31139 14.0789 6.39919 14.107C7.03073 14.3273 7.70192 14.4375 8.39294 14.4375C9.08395 14.4375 9.75231 14.3273 10.3867 14.107C10.7775 13.9711 11.1457 13.7977 11.4827 13.5891C11.4883 13.5867 11.494 13.5867 11.4997 13.5891C11.8377 13.7985 12.2059 13.9725 12.5957 14.107C13.2272 14.3273 13.8984 14.4375 14.5894 14.4375C15.2804 14.4375 15.9488 14.3273 16.5832 14.107C16.974 13.9711 17.3422 13.7977 17.6792 13.5891C17.6848 13.5867 17.6905 13.5867 17.6962 13.5891C18.0342 13.7985 18.4024 13.9725 18.7922 14.107C19.4237 14.3273 20.0949 14.4375 20.7859 14.4375C21.4769 14.4375 22.1453 14.3273 22.7797 14.107C22.8646 14.0766 22.9496 14.0461 23.0345 14.0133V19.6898ZM23.8728 10.2117C23.8728 11.6133 22.4851 12.75 20.7774 12.75C19.6219 12.75 18.6137 12.232 18.0813 11.4633C17.9992 11.3461 17.8519 11.2734 17.6877 11.2734H17.6707C17.5092 11.2734 17.3591 11.3461 17.277 11.4633C17.0053 11.8554 16.613 12.1811 16.1399 12.4071C15.6669 12.6331 15.13 12.7514 14.5838 12.75C13.4311 12.75 12.4258 12.2344 11.8933 11.468C11.8084 11.3484 11.6554 11.2734 11.4883 11.2734C11.3213 11.2734 11.1655 11.3484 11.0834 11.468C10.8101 11.8586 10.4173 12.1828 9.94445 12.4079C9.47165 12.6329 8.93554 12.7509 8.39011 12.75C6.68239 12.75 5.2947 11.6133 5.2947 10.2117V8.07422C5.2947 8.06719 5.30036 8.0625 5.30886 8.0625H23.8587C23.8672 8.0625 23.8728 8.06719 23.8728 8.07422V10.2117Z" fill="#1890FF"/>
    </g>
  </symbol>
  <symbol id="cup" viewBox="0 0 30 24">
    <g>
      <path d="M9.14581 11.25C9.14581 12.4008 9.68673 13.4836 10.6723 14.2992C11.655 15.1148 12.9662 15.5625 14.3568 15.5625H14.8099C16.2004 15.5625 17.5088 15.1148 18.4943 14.2992C19.4799 13.4859 20.0208 12.4008 20.0208 11.25V4.3125H9.14581V11.25ZM5.29425 8.25C5.29425 9.21094 6.05607 10.0266 7.10675 10.3031C6.05607 10.0242 5.29425 9.20859 5.29425 8.25ZM15.6028 17.2148C18.9163 16.9172 21.5614 14.7703 21.9976 12.0469C21.5586 14.7703 18.9163 16.9148 15.6028 17.2148ZM7.16906 12.0469C7.60519 14.7703 10.2503 16.9172 13.5638 17.2148C10.2503 16.9148 7.60802 14.7703 7.16906 12.0469Z" fill="#E6F7FF"/>
      <path d="M24.6653 3.75H22.0599V2.8125C22.0599 2.70937 21.9579 2.625 21.8333 2.625H7.33331C7.2087 2.625 7.10675 2.70937 7.10675 2.8125V3.75H4.50128C4.1708 3.75 3.85385 3.85865 3.62016 4.05205C3.38647 4.24544 3.25519 4.50775 3.25519 4.78125V8.25C3.25519 10.1648 4.95441 11.7563 7.16905 12.0469C7.60802 14.7703 10.2503 16.9148 13.5638 17.2148V19.6805H8.013C7.51173 19.6805 7.10675 20.0156 7.10675 20.4305V21.1875C7.10675 21.2906 7.2087 21.375 7.33331 21.375H21.8333C21.9579 21.375 22.0599 21.2906 22.0599 21.1875V20.4305C22.0599 20.0156 21.6549 19.6805 21.1536 19.6805H15.6028V17.2148C18.9163 16.9148 21.5586 14.7703 21.9976 12.0469C24.2122 11.7563 25.9114 10.1648 25.9114 8.25V4.78125C25.9114 4.50775 25.7802 4.24544 25.5465 4.05205C25.3128 3.85865 24.9958 3.75 24.6653 3.75ZM7.10675 10.3031C6.58069 10.1641 6.12164 9.89025 5.79586 9.52122C5.47007 9.15219 5.29442 8.70703 5.29425 8.25V5.4375H7.10675V10.3031ZM20.0208 11.25C20.0208 12.4008 19.4799 13.4859 18.4943 14.2992C17.5088 15.1148 16.2004 15.5625 14.8099 15.5625H14.3568C12.9662 15.5625 11.655 15.1148 10.6723 14.2992C9.68673 13.4836 9.14581 12.4008 9.14581 11.25V4.3125H20.0208V11.25ZM23.8724 8.25C23.8724 9.21094 23.1106 10.0266 22.0599 10.3031V5.4375H23.8724V8.25Z" fill="#1890FF"/>
    </g>
  </symbol>
  <symbol id="pages" viewBox="0 0 30 24">
    <g>
      <path d="M5.29425 5.4375H15.7161V13.3125H5.29425V5.4375Z" fill="#E6F7FF"/>
      <path d="M17.7552 14.8125C17.7552 14.9156 17.6532 15 17.5286 15H14.3568V16.7109H23.8724V8.83594H17.7552V14.8125Z" fill="#E6F7FF"/>
      <path d="M25.0052 7.14844H17.7552V4.5C17.7552 4.08516 17.3502 3.75 16.8489 3.75H5.29425V2.8125C5.29425 2.70937 5.1923 2.625 5.06769 2.625H3.48175C3.35714 2.625 3.25519 2.70937 3.25519 2.8125V21.1875C3.25519 21.2906 3.35714 21.375 3.48175 21.375H5.06769C5.1923 21.375 5.29425 21.2906 5.29425 21.1875V15H12.3177V17.6484C12.3177 18.0633 12.7227 18.3984 13.2239 18.3984H25.0052C25.5065 18.3984 25.9114 18.0633 25.9114 17.6484V7.89844C25.9114 7.48359 25.5065 7.14844 25.0052 7.14844ZM5.29425 13.3125V5.4375H15.7161V13.3125H5.29425ZM23.8724 16.7109H14.3568V15H17.5286C17.6532 15 17.7552 14.9156 17.7552 14.8125V8.83594H23.8724V16.7109Z" fill="#1890FF"/>
    </g>
  </symbol>
  <symbol id="groups" viewBox="0 0 30 24">
    <g>
      <path d="M19.7943 14.8125H23.4193V19.3125H19.7943V14.8125ZM5.74738 14.8125H9.37238V19.3125H5.74738V14.8125Z" fill="#E6F7FF"/>
      <path d="M14.5833 3C8.57657 3 3.70831 7.02891 3.70831 12V20.4375C3.70831 20.7492 4.01134 21 4.388 21H9.59894C10.5986 21 11.4114 20.3273 11.4114 19.5V14.625C11.4114 13.7977 10.5986 13.125 9.59894 13.125H5.74738V12C5.74738 7.96172 9.70372 4.6875 14.5833 4.6875C19.4629 4.6875 23.4193 7.96172 23.4193 12V13.125H19.5677C18.568 13.125 17.7552 13.7977 17.7552 14.625V19.5C17.7552 20.3273 18.568 21 19.5677 21H24.7786C25.1553 21 25.4583 20.7492 25.4583 20.4375V12C25.4583 7.02891 20.5901 3 14.5833 3ZM9.37238 14.8125V19.3125H5.74738V14.8125H9.37238ZM23.4193 19.3125H19.7943V14.8125H23.4193V19.3125Z" fill="#1890FF"/>
    </g>
  </symbol>
  <symbol id="events" viewBox="0 0 30 24">
    <g>
      <path d="M14.5871 4.04531L4.10856 12.7102H6.82731V20.3438H11.1858V15C11.1858 14.4821 11.6927 14.0625 12.3186 14.0625H16.8499C17.4757 14.0625 17.9827 14.4821 17.9827 15V20.3438H22.3412V12.7102H25.0628L15.2413 4.58672L14.5871 4.04531ZM26.8923 13.957C26.7223 14.0977 26.5213 14.2102 26.3032 14.2828C26.5213 14.2078 26.7223 14.0977 26.8923 13.957ZM1.77213 13.1438C1.91373 13.8539 2.66139 14.3977 3.55914 14.3977H3.58463C2.68121 14.3977 1.91656 13.8586 1.77213 13.1438ZM1.74664 12.8977V12.8531V12.8977ZM1.74948 12.8367C1.75231 12.7641 1.76364 12.6938 1.7778 12.6235C1.7608 12.6914 1.75231 12.7641 1.74948 12.8367Z" fill="#E6F7FF"/>
      <path d="M27.015 11.9531C27.015 11.9508 27.0122 11.9508 27.0122 11.9484L26.9612 11.8992C26.9584 11.8969 26.9555 11.8922 26.9499 11.8898C26.93 11.8711 26.9074 11.8523 26.8876 11.8336L15.9446 2.78436L15.2111 2.17733C15.044 2.03993 14.818 1.96282 14.5824 1.96282C14.3468 1.96282 14.1208 2.03993 13.9537 2.17733L2.27721 11.8359C2.06627 12.0096 1.91059 12.2238 1.82408 12.4594L1.80709 12.5086L1.7986 12.5344L1.7901 12.5625C1.78444 12.5789 1.7816 12.5953 1.77877 12.6117C1.77877 12.614 1.77877 12.6187 1.77594 12.6211C1.75895 12.6914 1.75045 12.7617 1.74762 12.8344V12.9117C1.74762 12.9234 1.74762 12.9351 1.75045 12.9469C1.75045 12.9586 1.75045 12.968 1.75328 12.9797C1.75328 12.9914 1.75612 13.0031 1.75612 13.0148C1.75612 13.0289 1.75895 13.043 1.76178 13.057C1.76178 13.064 1.76461 13.0711 1.76461 13.0781L1.77311 13.1367V13.139C1.91754 13.8539 2.68502 14.393 3.58561 14.393H4.78922V22.0312H24.3784V14.3976H25.6075C25.851 14.3976 26.0861 14.3578 26.3013 14.2828C26.5166 14.2078 26.7176 14.0976 26.8904 13.957C27.0591 13.8178 27.1928 13.6523 27.2837 13.4701C27.3746 13.2878 27.4209 13.0925 27.42 12.8953C27.42 12.5508 27.2784 12.2203 27.015 11.9531ZM16.1683 20.3437H12.9964V15.5625H16.1683V20.3437ZM22.3393 12.7101V20.3437H17.9808V15C17.9808 14.482 17.4739 14.0625 16.848 14.0625H12.3168C11.6909 14.0625 11.1839 14.482 11.1839 15V20.3437H6.82545V12.7101H4.1067L14.5852 4.0453L15.2394 4.5867L25.0609 12.7101H22.3393Z" fill="#1890FF"/>
    </g>
  </symbol>
  <symbol id="games" viewBox="0 0 30 24">
    <g>
      <path d="M7.49567 14.5643C7.22946 14.9064 7.01422 15.2744 6.85846 15.6564H9.26002V13.0947C8.55768 13.4744 7.95729 13.9736 7.49567 14.5643ZM19.9085 13.0947V15.6564H22.31C22.1543 15.2744 21.939 14.9064 21.6728 14.5643C21.2163 13.9771 20.615 13.4763 19.9085 13.0947ZM18.096 7.47207L14.5842 4.02676L11.0725 7.47207V15.6564H18.096V7.47207ZM14.5842 10.5002C14.2285 10.4942 13.8898 10.373 13.6408 10.1627C13.3918 9.95237 13.2523 9.66965 13.2523 9.37519C13.2523 9.08074 13.3918 8.79802 13.6408 8.58769C13.8898 8.37737 14.2285 8.2562 14.5842 8.25019C14.94 8.2562 15.2787 8.37737 15.5277 8.58769C15.7767 8.79802 15.9161 9.08074 15.9161 9.37519C15.9161 9.66965 15.7767 9.95237 15.5277 10.1627C15.2787 10.373 14.94 10.4942 14.5842 10.5002Z" fill="#E6F7FF"/>
      <path d="M24.5521 17.25C24.5521 14.6344 22.6999 12.375 20.0208 11.3227V7.43672C20.0208 7.08281 19.8707 6.74063 19.5932 6.47109L15.2772 2.23594C15.0959 2.05781 14.8382 1.96875 14.5833 1.96875C14.3284 1.96875 14.0707 2.05781 13.8895 2.23594L9.57345 6.47109C9.2978 6.74118 9.14634 7.08318 9.14581 7.43672V11.3227C6.46671 12.375 4.61456 14.6344 4.61456 17.25H9.04669C8.98155 17.4187 8.94757 17.6016 8.94757 17.8078C8.94757 18.3258 9.16281 18.832 9.55363 19.2328C9.87263 19.5606 10.2951 19.8088 10.7742 19.95C11.4284 21.2156 12.9152 22.0312 14.5833 22.0312C15.4074 22.0312 16.2061 21.8297 16.8886 21.45C17.5569 21.0797 18.0752 20.5617 18.3896 19.95C18.8685 19.8097 19.291 19.5623 19.6102 19.2352C20.0015 18.8307 20.2152 18.3283 20.2162 17.8102C20.2162 17.6133 20.1851 17.4258 20.1284 17.2523L24.5521 17.25ZM9.25909 15.6562H6.85753C7.01329 15.2742 7.22853 14.9063 7.49474 14.5641C7.95636 13.9734 8.55675 13.4742 9.25909 13.0945V15.6562ZM11.0716 11.3227V7.47187L14.5833 4.02656L18.095 7.47187V15.6562H11.0716V11.3227ZM17.8713 18.3797C17.724 18.45 17.5541 18.4781 17.387 18.4594L16.8348 18.4031L16.7555 18.8578C16.6026 19.7461 15.668 20.4164 14.5833 20.4164C13.4986 20.4164 12.5641 19.7461 12.4111 18.8578L12.3318 18.4008L11.7796 18.4594C11.6117 18.4759 11.4419 18.4472 11.2953 18.3773C11.0489 18.2602 10.896 18.0422 10.896 17.8055C10.896 17.557 11.0631 17.3508 11.3095 17.2477H17.86C18.1092 17.3531 18.2734 17.5594 18.2734 17.8055C18.2706 18.0445 18.1177 18.2648 17.8713 18.3797ZM19.9075 15.6562V13.0945C20.6141 13.4761 21.2153 13.9769 21.6719 14.5641C21.9381 14.9063 22.1533 15.2742 22.3091 15.6562H19.9075Z" fill="#1890FF"/>
      <path d="M13.2239 9.375C13.2239 9.67337 13.3672 9.95952 13.6221 10.1705C13.877 10.3815 14.2228 10.5 14.5833 10.5C14.9438 10.5 15.2896 10.3815 15.5445 10.1705C15.7995 9.95952 15.9427 9.67337 15.9427 9.375C15.9427 9.07663 15.7995 8.79048 15.5445 8.5795C15.2896 8.36853 14.9438 8.25 14.5833 8.25C14.2228 8.25 13.877 8.36853 13.6221 8.5795C13.3672 8.79048 13.2239 9.07663 13.2239 9.375Z" fill="#1890FF"/>
    </g>
  </symbol>
  <symbol id="down" viewBox="0 0 21 16">
    <g>
      <path d="M16.7831 4.6875H4.38255C4.01061 4.6875 3.80293 5.0125 4.03327 5.23437L10.2335 11.1844C10.411 11.3547 10.7527 11.3547 10.9321 11.1844L17.1324 5.23437C17.3627 5.0125 17.155 4.6875 16.7831 4.6875Z"/>
    </g>
  </symbol>
  <symbol id="photo" viewBox="0 0 24 24">
    <g>
      <path d="M21.75 3.75H2.25C1.83516 3.75 1.5 4.08516 1.5 4.5V19.5C1.5 19.9148 1.83516 20.25 2.25 20.25H21.75C22.1648 20.25 22.5 19.9148 22.5 19.5V4.5C22.5 4.08516 22.1648 3.75 21.75 3.75ZM20.8125 18.5625H3.1875V17.6273L6.43359 13.7766L9.95156 17.9484L15.4242 11.4609L20.8125 17.85V18.5625ZM20.8125 15.5203L15.5672 9.3C15.4922 9.21094 15.3562 9.21094 15.2812 9.3L9.95156 15.6188L6.57656 11.618C6.50156 11.5289 6.36562 11.5289 6.29062 11.618L3.1875 15.2977V5.4375H20.8125V15.5203Z" fill="#1890FF"/>
      <path d="M9.95156 17.9484L6.43359 13.7766L3.1875 17.6273V18.5625H20.8125V17.85L15.4242 11.4609L9.95156 17.9484Z" fill="#E6F7FF"/>
      <path d="M3.1875 15.2977L6.29062 11.618C6.36562 11.5289 6.50156 11.5289 6.57656 11.618L9.95156 15.6188L15.2812 9.3C15.3562 9.21094 15.4922 9.21094 15.5672 9.3L20.8125 15.5203V5.4375H3.1875V15.2977ZM7.125 6.5625C7.39585 6.5625 7.66405 6.61585 7.91428 6.7195C8.16452 6.82315 8.39189 6.97507 8.58341 7.16659C8.77493 7.35811 8.92685 7.58548 9.0305 7.83572C9.13415 8.08595 9.1875 8.35415 9.1875 8.625C9.1875 8.89585 9.13415 9.16405 9.0305 9.41428C8.92685 9.66452 8.77493 9.89189 8.58341 10.0834C8.39189 10.2749 8.16452 10.4269 7.91428 10.5305C7.66405 10.6342 7.39585 10.6875 7.125 10.6875C6.57799 10.6875 6.05339 10.4702 5.66659 10.0834C5.2798 9.69661 5.0625 9.17201 5.0625 8.625C5.0625 8.07799 5.2798 7.55339 5.66659 7.16659C6.05339 6.7798 6.57799 6.5625 7.125 6.5625Z" fill="#E6F7FF"/>
      <path d="M6.46875 8.625C6.46875 8.79905 6.53789 8.96597 6.66096 9.08904C6.78403 9.21211 6.95095 9.28125 7.125 9.28125C7.29905 9.28125 7.46597 9.21211 7.58904 9.08904C7.71211 8.96597 7.78125 8.79905 7.78125 8.625C7.78125 8.45095 7.71211 8.28403 7.58904 8.16096C7.46597 8.03789 7.29905 7.96875 7.125 7.96875C6.95095 7.96875 6.78403 8.03789 6.66096 8.16096C6.53789 8.28403 6.46875 8.45095 6.46875 8.625Z" fill="#E6F7FF"/>
      <path d="M7.125 10.6875C7.39585 10.6875 7.66405 10.6342 7.91428 10.5305C8.16452 10.4269 8.39189 10.2749 8.58341 10.0834C8.77493 9.89189 8.92685 9.66452 9.0305 9.41428C9.13415 9.16405 9.1875 8.89585 9.1875 8.625C9.1875 8.35415 9.13415 8.08595 9.0305 7.83572C8.92685 7.58548 8.77493 7.35811 8.58341 7.16659C8.39189 6.97507 8.16452 6.82315 7.91428 6.7195C7.66405 6.61585 7.39585 6.5625 7.125 6.5625C6.57799 6.5625 6.05339 6.7798 5.66659 7.16659C5.2798 7.55339 5.0625 8.07799 5.0625 8.625C5.0625 9.17201 5.2798 9.69661 5.66659 10.0834C6.05339 10.4702 6.57799 10.6875 7.125 10.6875ZM7.125 7.96875C7.48828 7.96875 7.78125 8.26172 7.78125 8.625C7.78125 8.98828 7.48828 9.28125 7.125 9.28125C6.76172 9.28125 6.46875 8.98828 6.46875 8.625C6.46875 8.26172 6.76172 7.96875 7.125 7.96875Z" fill="#1890FF"/>
    </g>
  </symbol>
  <symbol id="user" viewBox="0 0 24 24">
    <g>
      <path d="M15.8976 15.0563C16.4648 14.7516 17.114 14.5781 17.8054 14.5781H17.8077C17.8781 14.5781 17.9109 14.4938 17.8593 14.4469C17.1403 13.8016 16.3189 13.2804 15.4288 12.9047C15.4195 12.9 15.4101 12.8977 15.4007 12.893C16.8562 11.8359 17.8031 10.118 17.8031 8.17969C17.8031 4.96875 15.2062 2.36719 12.0023 2.36719C8.79837 2.36719 6.20384 4.96875 6.20384 8.17969C6.20384 10.118 7.15072 11.8359 8.60853 12.893C8.59915 12.8977 8.58978 12.9 8.58041 12.9047C7.53275 13.3477 6.59291 13.9828 5.78431 14.7938C4.98039 15.5962 4.34036 16.5475 3.89994 17.5945C3.46661 18.6198 3.23274 19.7184 3.21087 20.8312C3.21025 20.8563 3.21464 20.8812 3.22378 20.9044C3.23292 20.9277 3.24663 20.949 3.26411 20.9669C3.28158 20.9848 3.30246 20.999 3.32552 21.0087C3.34858 21.0184 3.37335 21.0234 3.39837 21.0234H4.80228C4.90306 21.0234 4.98744 20.9414 4.98978 20.8406C5.03666 19.0312 5.76087 17.3367 7.04291 16.0523C8.36712 14.7234 10.1296 13.9922 12.0046 13.9922C13.3335 13.9922 14.6085 14.3602 15.7077 15.0492C15.736 15.067 15.7684 15.077 15.8017 15.0782C15.8351 15.0794 15.8681 15.0719 15.8976 15.0563ZM12.0046 12.2109C10.9312 12.2109 9.92103 11.7914 9.15931 11.0297C8.78453 10.6559 8.48742 10.2116 8.28509 9.72248C8.08276 9.23335 7.97921 8.70901 7.98041 8.17969C7.98041 7.10391 8.39994 6.09141 9.15931 5.32969C9.91869 4.56797 10.9288 4.14844 12.0046 4.14844C13.0804 4.14844 14.0882 4.56797 14.8499 5.32969C15.2247 5.70349 15.5218 6.14776 15.7242 6.63689C15.9265 7.12603 16.03 7.65036 16.0288 8.17969C16.0288 9.25547 15.6093 10.268 14.8499 11.0297C14.0882 11.7914 13.0781 12.2109 12.0046 12.2109ZM20.6249 17.7891H18.6562V15.8203C18.6562 15.7172 18.5718 15.6328 18.4687 15.6328H17.1562C17.0531 15.6328 16.9687 15.7172 16.9687 15.8203V17.7891H14.9999C14.8968 17.7891 14.8124 17.8734 14.8124 17.9766V19.2891C14.8124 19.3922 14.8968 19.4766 14.9999 19.4766H16.9687V21.4453C16.9687 21.5484 17.0531 21.6328 17.1562 21.6328H18.4687C18.5718 21.6328 18.6562 21.5484 18.6562 21.4453V19.4766H20.6249C20.7281 19.4766 20.8124 19.3922 20.8124 19.2891V17.9766C20.8124 17.8734 20.7281 17.7891 20.6249 17.7891Z" fill="#1890FF"/>
    </g>
  </symbol>
  <symbol id="smile" viewBox="0 0 24 24">
    <g>
      <path d="M12 1.5C6.20156 1.5 1.5 6.20156 1.5 12C1.5 17.7984 6.20156 22.5 12 22.5C17.7984 22.5 22.5 17.7984 22.5 12C22.5 6.20156 17.7984 1.5 12 1.5ZM12 20.7188C7.18594 20.7188 3.28125 16.8141 3.28125 12C3.28125 7.18594 7.18594 3.28125 12 3.28125C16.8141 3.28125 20.7188 7.18594 20.7188 12C20.7188 16.8141 16.8141 20.7188 12 20.7188Z" fill="#1890FF"/>
      <path d="M12 3.28125C7.18594 3.28125 3.28125 7.18594 3.28125 12C3.28125 16.8141 7.18594 20.7188 12 20.7188C16.8141 20.7188 20.7188 16.8141 20.7188 12C20.7188 7.18594 16.8141 3.28125 12 3.28125ZM6.75 9.86719C6.75601 9.5728 6.87718 9.29249 7.0875 9.08641C7.29782 8.88034 7.58055 8.76492 7.875 8.76492C8.16945 8.76492 8.45218 8.88034 8.6625 9.08641C8.87282 9.29249 8.99399 9.5728 9 9.86719C8.99399 10.1616 8.87282 10.4419 8.6625 10.648C8.45218 10.854 8.16945 10.9695 7.875 10.9695C7.58055 10.9695 7.29782 10.854 7.0875 10.648C6.87718 10.4419 6.75601 10.1616 6.75 9.86719ZM12 16.2422C9.99609 16.2422 8.35313 14.6648 8.25 12.6891C8.24873 12.6637 8.25264 12.6383 8.26149 12.6144C8.27034 12.5906 8.28395 12.5688 8.30149 12.5504C8.31903 12.532 8.34013 12.5173 8.36351 12.5073C8.3869 12.4973 8.41207 12.4922 8.4375 12.4922H9.56484C9.66328 12.4922 9.74766 12.5672 9.75469 12.6656C9.84375 13.8258 10.8164 14.7422 12 14.7422C13.1836 14.7422 14.1586 13.8258 14.2453 12.6656C14.2523 12.5672 14.3367 12.4922 14.4352 12.4922H15.5625C15.5879 12.4922 15.6131 12.4973 15.6365 12.5073C15.6599 12.5173 15.681 12.532 15.6985 12.5504C15.716 12.5688 15.7297 12.5906 15.7385 12.6144C15.7474 12.6383 15.7513 12.6637 15.75 12.6891C15.6469 14.6648 14.0039 16.2422 12 16.2422ZM16.125 10.9922C15.8306 10.9862 15.5503 10.865 15.3442 10.6547C15.1382 10.4444 15.0227 10.1616 15.0227 9.86719C15.0227 9.57273 15.1382 9.29001 15.3442 9.07969C15.5503 8.86936 15.8306 8.7482 16.125 8.74219C16.4194 8.7482 16.6997 8.86936 16.9058 9.07969C17.1118 9.29001 17.2273 9.57273 17.2273 9.86719C17.2273 10.1616 17.1118 10.4444 16.9058 10.6547C16.6997 10.865 16.4194 10.9862 16.125 10.9922Z" fill="#E6F7FF"/>
      <path d="M6.75 9.86719C6.75 10.1656 6.86853 10.4517 7.0795 10.6627C7.29048 10.8737 7.57663 10.9922 7.875 10.9922C8.17337 10.9922 8.45952 10.8737 8.6705 10.6627C8.88147 10.4517 9 10.1656 9 9.86719C9 9.56882 8.88147 9.28267 8.6705 9.07169C8.45952 8.86071 8.17337 8.74219 7.875 8.74219C7.57663 8.74219 7.29048 8.86071 7.0795 9.07169C6.86853 9.28267 6.75 9.56882 6.75 9.86719ZM15.5625 12.4922H14.4352C14.3367 12.4922 14.2523 12.5672 14.2453 12.6656C14.1586 13.8258 13.1836 14.7422 12 14.7422C10.8164 14.7422 9.84375 13.8258 9.75469 12.6656C9.74766 12.5672 9.66328 12.4922 9.56484 12.4922H8.4375C8.41207 12.4922 8.3869 12.4973 8.36351 12.5073C8.34013 12.5173 8.31903 12.532 8.30149 12.5504C8.28395 12.5688 8.27034 12.5906 8.26149 12.6144C8.25264 12.6383 8.24873 12.6637 8.25 12.6891C8.35312 14.6648 9.99609 16.2422 12 16.2422C14.0039 16.2422 15.6469 14.6648 15.75 12.6891C15.7513 12.6637 15.7474 12.6383 15.7385 12.6144C15.7297 12.5906 15.716 12.5688 15.6985 12.5504C15.681 12.532 15.6599 12.5173 15.6365 12.5073C15.6131 12.4973 15.5879 12.4922 15.5625 12.4922ZM15 9.86719C15 10.1656 15.1185 10.4517 15.3295 10.6627C15.5405 10.8737 15.8266 10.9922 16.125 10.9922C16.4234 10.9922 16.7095 10.8737 16.9205 10.6627C17.1315 10.4517 17.25 10.1656 17.25 9.86719C17.25 9.56882 17.1315 9.28267 16.9205 9.07169C16.7095 8.86071 16.4234 8.74219 16.125 8.74219C15.8266 8.74219 15.5405 8.86071 15.3295 9.07169C15.1185 9.28267 15 9.56882 15 9.86719Z" fill="#1890FF"/>
    </g>
  </symbol>
  <symbol id="dot" viewBox="0 0 24 24">
    <g>
      <path d="M4.125 11.9766C4.125 12.1489 4.15895 12.3196 4.22491 12.4788C4.29087 12.6381 4.38755 12.7828 4.50942 12.9046C4.6313 13.0265 4.77599 13.1232 4.93523 13.1892C5.09447 13.2551 5.26514 13.2891 5.4375 13.2891C5.60986 13.2891 5.78053 13.2551 5.93977 13.1892C6.09901 13.1232 6.2437 13.0265 6.36558 12.9046C6.48745 12.7828 6.58413 12.6381 6.65009 12.4788C6.71605 12.3196 6.75 12.1489 6.75 11.9766C6.75 11.8042 6.71605 11.6335 6.65009 11.4743C6.58413 11.3151 6.48745 11.1704 6.36558 11.0485C6.2437 10.9266 6.09901 10.8299 5.93977 10.764C5.78053 10.698 5.60986 10.6641 5.4375 10.6641C5.26514 10.6641 5.09447 10.698 4.93523 10.764C4.77599 10.8299 4.6313 10.9266 4.50942 11.0485C4.38755 11.1704 4.29087 11.3151 4.22491 11.4743C4.15895 11.6335 4.125 11.8042 4.125 11.9766ZM10.6875 11.9766C10.6875 12.3247 10.8258 12.6585 11.0719 12.9046C11.3181 13.1508 11.6519 13.2891 12 13.2891C12.3481 13.2891 12.6819 13.1508 12.9281 12.9046C13.1742 12.6585 13.3125 12.3247 13.3125 11.9766C13.3125 11.6285 13.1742 11.2946 12.9281 11.0485C12.6819 10.8023 12.3481 10.6641 12 10.6641C11.6519 10.6641 11.3181 10.8023 11.0719 11.0485C10.8258 11.2946 10.6875 11.6285 10.6875 11.9766ZM17.25 11.9766C17.25 12.3247 17.3883 12.6585 17.6344 12.9046C17.8806 13.1508 18.2144 13.2891 18.5625 13.2891C18.9106 13.2891 19.2444 13.1508 19.4906 12.9046C19.7367 12.6585 19.875 12.3247 19.875 11.9766C19.875 11.6285 19.7367 11.2946 19.4906 11.0485C19.2444 10.8023 18.9106 10.6641 18.5625 10.6641C18.2144 10.6641 17.8806 10.8023 17.6344 11.0485C17.3883 11.2946 17.25 11.6285 17.25 11.9766Z" fill="#595959"/>
    </g>
  </symbol>
  <symbol id="seting" viewBox="0 0 14 14">
    <g>
      <path d="M12.6438 8.55473L11.7483 7.7891C11.7907 7.52934 11.8126 7.2641 11.8126 6.99887C11.8126 6.73363 11.7907 6.4684 11.7483 6.20863L12.6438 5.44301C12.7114 5.38519 12.7597 5.30817 12.7824 5.22221C12.8051 5.13624 12.8011 5.0454 12.771 4.96176L12.7587 4.92621C12.5121 4.23719 12.143 3.59845 11.669 3.04086L11.6444 3.01215C11.5869 2.94454 11.5103 2.89595 11.4246 2.87276C11.339 2.84958 11.2483 2.85289 11.1645 2.88227L10.053 3.27738C9.64285 2.94106 9.18485 2.67582 8.68992 2.48988L8.47528 1.32777C8.45908 1.24033 8.41667 1.15989 8.35366 1.09713C8.29066 1.03437 8.21005 0.992262 8.12254 0.976407L8.08563 0.969571C7.37332 0.841055 6.6241 0.841055 5.9118 0.969571L5.87489 0.976407C5.78738 0.992262 5.70677 1.03437 5.64377 1.09713C5.58076 1.15989 5.53835 1.24033 5.52215 1.32777L5.30614 2.49535C4.81516 2.68133 4.35795 2.94642 3.95262 3.28012L2.83289 2.88227C2.74918 2.85266 2.65843 2.84922 2.57271 2.87242C2.487 2.89562 2.41037 2.94436 2.35301 3.01215L2.3284 3.04086C1.85501 3.59884 1.48591 4.23747 1.23875 4.92621L1.22645 4.96176C1.16493 5.13266 1.21551 5.32406 1.3536 5.44301L2.26004 6.21684C2.21766 6.47387 2.19715 6.73637 2.19715 6.9975C2.19715 7.26 2.21766 7.5225 2.26004 7.77817L1.3536 8.55199C1.28605 8.60982 1.23771 8.68683 1.215 8.7728C1.19229 8.85876 1.19628 8.9496 1.22645 9.03324L1.23875 9.06879C1.48621 9.75785 1.85262 10.3936 2.3284 10.9541L2.35301 10.9829C2.41051 11.0505 2.48714 11.0991 2.5728 11.1222C2.65847 11.1454 2.74915 11.1421 2.83289 11.1127L3.95262 10.7149C4.36004 11.0498 4.81532 11.3151 5.30614 11.4997L5.52215 12.6672C5.53835 12.7547 5.58076 12.8351 5.64377 12.8979C5.70677 12.9606 5.78738 13.0027 5.87489 13.0186L5.9118 13.0254C6.63065 13.1546 7.36678 13.1546 8.08563 13.0254L8.12254 13.0186C8.21005 13.0027 8.29066 12.9606 8.35366 12.8979C8.41667 12.8351 8.45908 12.7547 8.47528 12.6672L8.68992 11.5051C9.18465 11.3197 9.64524 11.0536 10.053 10.7176L11.1645 11.1127C11.2483 11.1423 11.339 11.1458 11.4247 11.1226C11.5104 11.0994 11.5871 11.0506 11.6444 10.9829L11.669 10.9541C12.1448 10.3922 12.5112 9.75785 12.7587 9.06879L12.771 9.03324C12.8325 8.86508 12.7819 8.67367 12.6438 8.55473ZM10.7776 6.36996C10.8118 6.57641 10.8296 6.78832 10.8296 7.00024C10.8296 7.21215 10.8118 7.42406 10.7776 7.63051L10.6874 8.17875L11.7087 9.05238C11.5539 9.40907 11.3584 9.74672 11.1263 10.0586L9.8575 9.60883L9.42821 9.96156C9.10145 10.2295 8.73778 10.4401 8.34403 10.5877L7.82313 10.7832L7.5784 12.1094C7.19227 12.1532 6.80243 12.1532 6.41629 12.1094L6.17157 10.7805L5.65477 10.5823C5.26512 10.4346 4.90282 10.2241 4.57879 9.95746L4.1495 9.60336L2.87254 10.0573C2.64012 9.74418 2.44598 9.40649 2.29012 9.05102L3.32235 8.16918L3.23348 7.62231C3.20067 7.41859 3.18289 7.20805 3.18289 7.00024C3.18289 6.79106 3.1993 6.58188 3.23348 6.37816L3.32235 5.83129L2.29012 4.94945C2.44461 4.59262 2.64012 4.25629 2.87254 3.9432L4.1495 4.39711L4.57879 4.04301C4.90282 3.77641 5.26512 3.56586 5.65477 3.4182L6.17293 3.2227L6.41766 1.89379C6.80184 1.85004 7.19422 1.85004 7.57977 1.89379L7.8245 3.21996L8.34539 3.41547C8.73778 3.56313 9.10282 3.77367 9.42957 4.04164L9.85887 4.39438L11.1276 3.94457C11.36 4.25766 11.5542 4.59535 11.71 4.95082L10.6888 5.82445L10.7776 6.36996ZM7.00008 4.45727C5.67118 4.45727 4.59383 5.53461 4.59383 6.86352C4.59383 8.19242 5.67118 9.26977 7.00008 9.26977C8.32899 9.26977 9.40633 8.19242 9.40633 6.86352C9.40633 5.53461 8.32899 4.45727 7.00008 4.45727ZM8.08289 7.94633C7.94087 8.08876 7.77209 8.2017 7.58626 8.27866C7.40043 8.35562 7.20122 8.39508 7.00008 8.39477C6.59129 8.39477 6.20711 8.23481 5.91727 7.94633C5.77484 7.80431 5.6619 7.63553 5.58494 7.4497C5.50798 7.26387 5.46852 7.06465 5.46883 6.86352C5.46883 6.45473 5.62879 6.07055 5.91727 5.7807C6.20711 5.49086 6.59129 5.33227 7.00008 5.33227C7.40887 5.33227 7.79305 5.49086 8.08289 5.7807C8.22532 5.92272 8.33827 6.09151 8.41523 6.27734C8.49219 6.46317 8.53164 6.66238 8.53133 6.86352C8.53133 7.27231 8.37137 7.65649 8.08289 7.94633Z" fill="#8C8C8C"/>
    </g>
  </symbol>
  <symbol id="like" viewBox="0 0 16 16">
    <g>
      <path d="M4.26562 7.74846V14.436L4.27031 7.74846H4.26562ZM12.675 6.36877H7.7625L7.9125 3.26877C7.92188 3.08283 7.83906 2.90783 7.68437 2.79221C7.58906 2.72189 7.47188 2.68596 7.35469 2.68752C7.04844 2.68908 6.77813 2.89689 6.69531 3.19221C6.11563 5.29221 5.68125 6.86721 5.39062 7.91877V13.3125H11.6313C11.7874 13.2425 11.9201 13.1289 12.0132 12.9853C12.1063 12.8417 12.156 12.6743 12.1562 12.5031C12.1562 12.3516 12.1203 12.2078 12.0484 12.0766L11.8313 11.6797L12.1734 11.3828C12.2698 11.2994 12.347 11.1962 12.3998 11.0803C12.4527 10.9643 12.4799 10.8384 12.4797 10.711C12.4797 10.5594 12.4437 10.4156 12.3719 10.2844L12.1547 9.88752L12.4969 9.59064C12.5932 9.50723 12.6704 9.40403 12.7232 9.28809C12.7761 9.17215 12.8033 9.04618 12.8031 8.91877C12.8031 8.76721 12.7672 8.62346 12.6953 8.49221L12.4766 8.09377L12.8188 7.79689C12.9151 7.71348 12.9923 7.61028 13.0451 7.49434C13.098 7.3784 13.1252 7.25243 13.125 7.12502C13.125 6.82658 12.9531 6.53908 12.675 6.36877Z" fill="#E6F7FF"/>
      <path d="M1.75 8.25005V13.9375C1.75 14.2141 1.97344 14.4375 2.25 14.4375H3.26562V7.75005H2.25C1.97344 7.75005 1.75 7.97349 1.75 8.25005ZM13.8422 8.33911C14.1047 7.99224 14.25 7.56724 14.25 7.12505C14.25 6.42349 13.8578 5.75786 13.2266 5.39067C13.0641 5.29535 12.879 5.24519 12.6906 5.24536H8.94219L9.03594 3.32505C9.05937 2.86099 8.89531 2.42036 8.575 2.08442C8.4187 1.91868 8.23 1.78683 8.02061 1.69705C7.81123 1.60728 7.58563 1.5615 7.35781 1.56255C6.54531 1.56255 5.82656 2.10942 5.61094 2.89224L4.27031 7.74849L4.26562 14.436H11.6422C11.7875 14.436 11.9266 14.4079 12.0562 14.3516C12.8 14.0344 13.2797 13.3079 13.2797 12.5016C13.2797 12.3047 13.2516 12.111 13.1953 11.9235C13.4578 11.5766 13.6031 11.1516 13.6031 10.7094C13.6031 10.5125 13.575 10.3188 13.5188 10.1313C13.7812 9.78442 13.9266 9.35942 13.9266 8.91724C13.9266 8.72036 13.8984 8.52661 13.8422 8.33911ZM12.8188 7.79692L12.4766 8.0938L12.6953 8.49224C12.7669 8.62297 12.804 8.76976 12.8031 8.9188C12.8031 9.17661 12.6922 9.42192 12.4969 9.59067L12.1547 9.88755L12.3719 10.2844C12.4434 10.4152 12.4805 10.562 12.4797 10.711C12.4797 10.9688 12.3687 11.2141 12.1734 11.3829L11.8313 11.6797L12.0484 12.0766C12.12 12.2073 12.1571 12.3541 12.1562 12.5032C12.1562 12.8532 11.95 13.1688 11.6313 13.3125H5.39062V7.9188C5.68125 6.8688 6.11562 5.2938 6.69531 3.19224C6.73581 3.04809 6.82198 2.92098 6.94087 2.82998C7.05977 2.73898 7.20497 2.689 7.35469 2.68755C7.47188 2.68599 7.58906 2.72192 7.68437 2.79224C7.83906 2.90786 7.92188 3.08286 7.9125 3.2688L7.7625 6.3688H12.675C12.9531 6.53911 13.125 6.82661 13.125 7.12505C13.125 7.38286 13.0141 7.62817 12.8188 7.79692Z" fill="#1890FF"/>
    </g>
  </symbol>
  <symbol id="likes" viewBox="0 0 24 24">
    <g>
      <path d="M20.7633 12.5094C21.157 11.9891 21.375 11.3516 21.375 10.6883C21.375 9.63596 20.7867 8.63987 19.8398 8.0844C19.5961 7.94142 19.3185 7.86617 19.0359 7.86643H13.4156L13.5563 4.98596C13.5891 4.28987 13.343 3.62893 12.8648 3.12502C12.6302 2.87665 12.3471 2.67904 12.0331 2.5444C11.7191 2.40975 11.3807 2.34094 11.0391 2.34221C9.82031 2.34221 8.74219 3.16252 8.41875 4.33674L6.40547 11.6258H3.375C2.96016 11.6258 2.625 11.961 2.625 12.3758V20.9071C2.625 21.3219 2.96016 21.6571 3.375 21.6571H17.468C17.6836 21.6571 17.8945 21.6149 18.0891 21.5305C19.2047 21.0547 19.9242 19.9649 19.9242 18.7555C19.9242 18.4602 19.882 18.1696 19.7977 17.8883C20.1914 17.368 20.4094 16.7305 20.4094 16.0672C20.4094 15.7719 20.3672 15.4813 20.2828 15.2C20.6766 14.6797 20.8945 14.0422 20.8945 13.3789C20.8898 13.0836 20.8477 12.7906 20.7633 12.5094ZM4.3125 19.9696V13.3133H6.21094V19.9696H4.3125ZM19.2281 11.6961L18.7148 12.1414L19.0406 12.7367C19.148 12.9328 19.2036 13.153 19.2023 13.3766C19.2023 13.7633 19.0336 14.1313 18.743 14.3844L18.2297 14.8297L18.5555 15.425C18.6628 15.6211 18.7185 15.8413 18.7172 16.0649C18.7172 16.4516 18.5484 16.8196 18.2578 17.0727L17.7445 17.518L18.0703 18.1133C18.1776 18.3094 18.2333 18.5296 18.232 18.7531C18.232 19.2781 17.9227 19.7516 17.4445 19.9672H7.71094V13.2383L10.043 4.78909C10.1031 4.57252 10.2322 4.38147 10.4107 4.24486C10.5891 4.10825 10.8073 4.03354 11.032 4.03205C11.2102 4.03205 11.3859 4.08362 11.5266 4.18909C11.7586 4.36252 11.8828 4.62502 11.8687 4.90393L11.6437 9.55393H19.0125C19.4297 9.8094 19.6875 10.2406 19.6875 10.6883C19.6875 11.075 19.5188 11.4406 19.2281 11.6961Z" fill="#595959"/>
    </g>
  </symbol>
  <symbol id="comment" viewBox="0 0 24 24">
    <g>
      <path d="M10.8752 12C10.8752 12.2984 10.9937 12.5845 11.2047 12.7955C11.4157 13.0065 11.7018 13.125 12.0002 13.125C12.2985 13.125 12.5847 13.0065 12.7957 12.7955C13.0067 12.5845 13.1252 12.2984 13.1252 12C13.1252 11.7016 13.0067 11.4155 12.7957 11.2045C12.5847 10.9935 12.2985 10.875 12.0002 10.875C11.7018 10.875 11.4157 10.9935 11.2047 11.2045C10.9937 11.4155 10.8752 11.7016 10.8752 12ZM15.5627 12C15.5627 12.2984 15.6812 12.5845 15.8922 12.7955C16.1032 13.0065 16.3893 13.125 16.6877 13.125C16.986 13.125 17.2722 13.0065 17.4832 12.7955C17.6942 12.5845 17.8127 12.2984 17.8127 12C17.8127 11.7016 17.6942 11.4155 17.4832 11.2045C17.2722 10.9935 16.986 10.875 16.6877 10.875C16.3893 10.875 16.1032 10.9935 15.8922 11.2045C15.6812 11.4155 15.5627 11.7016 15.5627 12ZM6.18768 12C6.18768 12.2984 6.30621 12.5845 6.51718 12.7955C6.72816 13.0065 7.01431 13.125 7.31268 13.125C7.61105 13.125 7.8972 13.0065 8.10817 12.7955C8.31915 12.5845 8.43768 12.2984 8.43768 12C8.43768 11.7016 8.31915 11.4155 8.10817 11.2045C7.8972 10.9935 7.61105 10.875 7.31268 10.875C7.01431 10.875 6.72816 10.9935 6.51718 11.2045C6.30621 11.4155 6.18768 11.7016 6.18768 12ZM21.6846 7.93125C21.1549 6.67266 20.3955 5.54297 19.4275 4.57266C18.4663 3.60796 17.3253 2.84114 16.0689 2.31563C14.7799 1.77422 13.4111 1.5 12.0002 1.5H11.9533C10.533 1.50703 9.15721 1.78828 7.86346 2.34141C6.61789 2.87232 5.48752 3.64049 4.53534 4.60312C3.57674 5.57109 2.8244 6.69609 2.30409 7.95C1.76502 9.24844 1.49315 10.6289 1.50018 12.0492C1.50813 13.6769 1.89321 15.2806 2.62518 16.7344V20.2969C2.62518 20.5828 2.73877 20.857 2.94095 21.0592C3.14314 21.2614 3.41737 21.375 3.7033 21.375H7.26815C8.72196 22.107 10.3256 22.492 11.9533 22.5H12.0025C13.4064 22.5 14.7681 22.2281 16.0502 21.6961C17.3002 21.1768 18.437 20.419 19.3971 19.4648C20.365 18.5063 21.1267 17.3859 21.6588 16.1367C22.2119 14.843 22.4931 13.4672 22.5002 12.0469C22.5072 10.6195 22.2306 9.23438 21.6846 7.93125ZM18.1431 18.1969C16.5002 19.8234 14.3205 20.7188 12.0002 20.7188H11.9603C10.5471 20.7117 9.14315 20.3602 7.9033 19.6992L7.70643 19.5938H4.40643V16.2938L4.30096 16.0969C3.64002 14.857 3.28846 13.4531 3.28143 12.0398C3.27205 9.70312 4.16502 7.50937 5.8033 5.85703C7.43924 4.20469 9.62596 3.29062 11.9627 3.28125H12.0025C13.1744 3.28125 14.3111 3.50859 15.3822 3.95859C16.4275 4.39687 17.365 5.02734 18.1713 5.83359C18.9752 6.6375 19.608 7.57734 20.0463 8.62266C20.501 9.70547 20.7283 10.8539 20.7236 12.0398C20.7096 14.3742 19.7931 16.5609 18.1431 18.1969Z" fill="#595959"/>
    </g>
  </symbol>
  <symbol id="share" viewBox="0 0 24 24">
    <g>
      <path d="M17.625 15.5625C16.957 15.5625 16.3406 15.7969 15.8578 16.1883L11.0016 12.675C11.0829 12.2287 11.0829 11.7713 11.0016 11.325L15.8578 7.81172C16.3406 8.20312 16.957 8.4375 17.625 8.4375C19.1766 8.4375 20.4375 7.17656 20.4375 5.625C20.4375 4.07344 19.1766 2.8125 17.625 2.8125C16.0734 2.8125 14.8125 4.07344 14.8125 5.625C14.8125 5.89687 14.85 6.15703 14.9227 6.40547L10.3102 9.74531C9.62578 8.83828 8.53828 8.25 7.3125 8.25C5.24062 8.25 3.5625 9.92812 3.5625 12C3.5625 14.0719 5.24062 15.75 7.3125 15.75C8.53828 15.75 9.62578 15.1617 10.3102 14.2547L14.9227 17.5945C14.85 17.843 14.8125 18.1055 14.8125 18.375C14.8125 19.9266 16.0734 21.1875 17.625 21.1875C19.1766 21.1875 20.4375 19.9266 20.4375 18.375C20.4375 16.8234 19.1766 15.5625 17.625 15.5625ZM17.625 4.40625C18.2977 4.40625 18.8438 4.95234 18.8438 5.625C18.8438 6.29766 18.2977 6.84375 17.625 6.84375C16.9523 6.84375 16.4062 6.29766 16.4062 5.625C16.4062 4.95234 16.9523 4.40625 17.625 4.40625ZM7.3125 14.0625C6.17578 14.0625 5.25 13.1367 5.25 12C5.25 10.8633 6.17578 9.9375 7.3125 9.9375C8.44922 9.9375 9.375 10.8633 9.375 12C9.375 13.1367 8.44922 14.0625 7.3125 14.0625ZM17.625 19.5938C16.9523 19.5938 16.4062 19.0477 16.4062 18.375C16.4062 17.7023 16.9523 17.1562 17.625 17.1562C18.2977 17.1562 18.8438 17.7023 18.8438 18.375C18.8438 19.0477 18.2977 19.5938 17.625 19.5938Z" fill="#595959"/>
    </g>
  </symbol>
  <symbol id="arhive" viewBox="0 0 16 16">
    <g>
      <path d="M8 1C4.13438 1 1 4.13438 1 8C1 11.8656 4.13438 15 8 15C11.8656 15 15 11.8656 15 8C15 4.13438 11.8656 1 8 1ZM8 13.8125C4.79063 13.8125 2.1875 11.2094 2.1875 8C2.1875 4.79063 4.79063 2.1875 8 2.1875C11.2094 2.1875 13.8125 4.79063 13.8125 8C13.8125 11.2094 11.2094 13.8125 8 13.8125Z" />
      <path d="M10.7297 9.97811L8.50156 8.36718V4.5C8.50156 4.43125 8.44531 4.375 8.37656 4.375H7.625C7.55625 4.375 7.5 4.43125 7.5 4.5V8.80311C7.5 8.84374 7.51875 8.88124 7.55156 8.90467L10.1359 10.789C10.1922 10.8297 10.2703 10.8172 10.3109 10.7625L10.7578 10.1531C10.7984 10.0953 10.7859 10.0172 10.7297 9.97811Z" />
    </g>
  </symbol>
  <symbol id="bday" viewBox="0 0 24 24">
    <g>
      <path d="M12.7969 8.85938H19.7812V11.2969H12.7969V8.85938ZM5.34375 12.8906H11.2031V20.1094H5.34375V12.8906ZM4.21875 8.85938H11.2031V11.2969H4.21875V8.85938ZM12.7969 12.8906H18.6562V20.1094H12.7969V12.8906Z" fill="#E6F7FF"/>
      <path d="M20.625 7.26562H17.1656C17.4844 6.76406 17.6719 6.16875 17.6719 5.53125C17.6719 3.74766 16.2211 2.29688 14.4375 2.29688C13.4672 2.29688 12.593 2.72812 12 3.40781C11.407 2.72812 10.5328 2.29688 9.5625 2.29688C7.77891 2.29688 6.32812 3.74766 6.32812 5.53125C6.32812 6.16875 6.51328 6.76406 6.83438 7.26562H3.375C2.96016 7.26562 2.625 7.60078 2.625 8.01562V12.7031C2.625 12.8062 2.70937 12.8906 2.8125 12.8906H3.75V20.9531C3.75 21.368 4.08516 21.7031 4.5 21.7031H19.5C19.9148 21.7031 20.25 21.368 20.25 20.9531V12.8906H21.1875C21.2906 12.8906 21.375 12.8062 21.375 12.7031V8.01562C21.375 7.60078 21.0398 7.26562 20.625 7.26562ZM11.2031 20.1094H5.34375V12.8906H11.2031V20.1094ZM11.2031 11.2969H4.21875V8.85938H11.2031V11.2969ZM11.2031 7.17188H9.5625C8.65781 7.17188 7.92188 6.43594 7.92188 5.53125C7.92188 4.62656 8.65781 3.89062 9.5625 3.89062C10.4672 3.89062 11.2031 4.62656 11.2031 5.53125V7.17188ZM12.7969 5.53125C12.7969 4.62656 13.5328 3.89062 14.4375 3.89062C15.3422 3.89062 16.0781 4.62656 16.0781 5.53125C16.0781 6.43594 15.3422 7.17188 14.4375 7.17188H12.7969V5.53125ZM18.6562 20.1094H12.7969V12.8906H18.6562V20.1094ZM19.7812 11.2969H12.7969V8.85938H19.7812V11.2969Z" fill="#1890FF"/>
    </g>
  </symbol>

  <!--  -->
  <symbol id="frend" viewBox="0 0 24 24">
    <g>
      
    </g>
  </symbol>
</svg>

